<?xml version="1.0" encoding="UTF-8"?>
<svg height="600" width="800" xmlns="http://www.w3.org/2000/svg">
    <g id="Notes" font-family="sans-serif" font-size="13">
        <rect fill="white" height="600.0" width="800.0" x="0.0" y="0.0" />
        <text x="18.0" y="376.0">Medium</text>
        <text id="template-version" fill="#505050" text-anchor="end" x="785.0" y="575.0">Template v.3.0</text>
    </g>
    <g id="Guides" stroke="rgb(39, 170, 225)" stroke-width="0.5">
        <path id="Capline-S" d="M18,76 l800,0" />
        <path id="H-reference" d="M85,145.755 L87.685,145.755 L113.369,79.287 L114.052,79.287 L114.052,76 L112.148,76 L85,145.755 Z M95.693,121.536 L130.996,121.536 L130.263,119.313 L96.474,119.313 L95.693,121.536 Z M139.15,145.755 L141.787,145.755 L114.638,76 L113.466,76 L113.466,79.287 L139.15,145.755 Z" stroke="none" transform="translate(0,200)" />
        <path id="Baseline-S" d="M18,146 l800,0" />
        <path id="left-margin-Ultralight-M" d="M235.57,256 l0,110" />
        <path id="right-margin-Ultralight-M" d="M294.43,256 l0,110" />
        <path id="left-margin-Regular-M" d="M435.57,256 l0,110" />
        <path id="right-margin-Regular-M" d="M494.43,256 l0,110" />
        <path id="left-margin-Black-M" d="M635.57,256 l0,110" />
        <path id="right-margin-Black-M" d="M694.43,256 l0,110" />
        <path id="Capline-M" d="M18,276 l800,0" />
        <path id="Baseline-M" d="M18,346 l800,0" />
        <path id="Capline-L" d="M18,476 l800,0" />
        <path id="Baseline-L" d="M18,546 l800,0" />
    </g>
    <g id="Symbols">
        <g id="Ultralight-M">
            <g transform="translate(237.57,279.0) scale(1.8286)">
<g transform="matrix(1,0,0,1,-242.754,-699.73)">
    <path d="M257.751,699.73L272.749,708.389L272.749,725.706L257.751,734.365L242.754,725.706L242.754,708.389L257.751,699.73ZM261.446,726.642C258.116,726.537 251.105,725.486 251.048,718.487C250.972,709.305 261.283,711.111 261.283,711.111C261.283,711.111 262.006,709.853 262.518,708.964C262.614,708.796 262.795,708.697 262.988,708.705C263.181,708.713 263.353,708.828 263.434,709.003C264.162,710.568 265.641,713.747 266.264,715.085C266.332,715.232 266.328,715.402 266.253,715.544C266.178,715.687 266.04,715.787 265.88,715.813C264.467,716.047 261.175,716.592 259.477,716.873C259.282,716.905 259.085,716.823 258.971,716.661C258.857,716.499 258.845,716.286 258.941,716.113C259.402,715.282 260.004,714.197 260.004,714.197C252.478,713.519 255.639,720.669 255.639,720.669C258.406,723.809 262.076,723.148 263.989,722.492C263.989,722.492 269.987,712.702 271.342,710.491C271.414,710.374 271.436,710.234 271.404,710.1C271.372,709.967 271.289,709.852 271.172,709.781C269.086,708.503 260.218,703.068 258.132,701.79C257.889,701.641 257.571,701.718 257.422,701.961C255.669,704.822 245.913,720.743 244.16,723.604C244.011,723.847 244.087,724.165 244.33,724.314C246.416,725.592 255.285,731.027 257.37,732.305C257.613,732.454 257.931,732.377 258.08,732.134C258.923,730.76 261.446,726.642 261.446,726.642Z" style="fill:currentcolor"></path>
  </g>
            </g>
        </g>
        <g id="Regular-M">
            <g transform="translate(437.57,279.0) scale(1.8286)">
<g transform="matrix(1,0,0,1,-242.754,-699.73)">
    <path d="M257.751,699.73L272.749,708.389L272.749,725.706L257.751,734.365L242.754,725.706L242.754,708.389L257.751,699.73ZM261.446,726.642C258.116,726.537 251.105,725.486 251.048,718.487C250.972,709.305 261.283,711.111 261.283,711.111C261.283,711.111 262.006,709.853 262.518,708.964C262.614,708.796 262.795,708.697 262.988,708.705C263.181,708.713 263.353,708.828 263.434,709.003C264.162,710.568 265.641,713.747 266.264,715.085C266.332,715.232 266.328,715.402 266.253,715.544C266.178,715.687 266.04,715.787 265.88,715.813C264.467,716.047 261.175,716.592 259.477,716.873C259.282,716.905 259.085,716.823 258.971,716.661C258.857,716.499 258.845,716.286 258.941,716.113C259.402,715.282 260.004,714.197 260.004,714.197C252.478,713.519 255.639,720.669 255.639,720.669C258.406,723.809 262.076,723.148 263.989,722.492C263.989,722.492 269.987,712.702 271.342,710.491C271.414,710.374 271.436,710.234 271.404,710.1C271.372,709.967 271.289,709.852 271.172,709.781C269.086,708.503 260.218,703.068 258.132,701.79C257.889,701.641 257.571,701.718 257.422,701.961C255.669,704.822 245.913,720.743 244.16,723.604C244.011,723.847 244.087,724.165 244.33,724.314C246.416,725.592 255.285,731.027 257.37,732.305C257.613,732.454 257.931,732.377 258.08,732.134C258.923,730.76 261.446,726.642 261.446,726.642Z" style="fill:currentcolor"></path>
  </g>
            </g>
        </g>
        <g id="Black-M">
            <g transform="translate(637.57,279.0) scale(1.8286)">
<g transform="matrix(1,0,0,1,-242.754,-699.73)">
    <path d="M257.751,699.73L272.749,708.389L272.749,725.706L257.751,734.365L242.754,725.706L242.754,708.389L257.751,699.73ZM261.446,726.642C258.116,726.537 251.105,725.486 251.048,718.487C250.972,709.305 261.283,711.111 261.283,711.111C261.283,711.111 262.006,709.853 262.518,708.964C262.614,708.796 262.795,708.697 262.988,708.705C263.181,708.713 263.353,708.828 263.434,709.003C264.162,710.568 265.641,713.747 266.264,715.085C266.332,715.232 266.328,715.402 266.253,715.544C266.178,715.687 266.04,715.787 265.88,715.813C264.467,716.047 261.175,716.592 259.477,716.873C259.282,716.905 259.085,716.823 258.971,716.661C258.857,716.499 258.845,716.286 258.941,716.113C259.402,715.282 260.004,714.197 260.004,714.197C252.478,713.519 255.639,720.669 255.639,720.669C258.406,723.809 262.076,723.148 263.989,722.492C263.989,722.492 269.987,712.702 271.342,710.491C271.414,710.374 271.436,710.234 271.404,710.1C271.372,709.967 271.289,709.852 271.172,709.781C269.086,708.503 260.218,703.068 258.132,701.79C257.889,701.641 257.571,701.718 257.422,701.961C255.669,704.822 245.913,720.743 244.16,723.604C244.011,723.847 244.087,724.165 244.33,724.314C246.416,725.592 255.285,731.027 257.37,732.305C257.613,732.454 257.931,732.377 258.08,732.134C258.923,730.76 261.446,726.642 261.446,726.642Z" style="fill:currentcolor"></path>
  </g>
            </g>
        </g>
    </g>
</svg>
